HIERARCHY
ROOT Pelvis
{
	OFFSET 0.000000 0.000000 0.000000
	CHANNELS 6 Xposition Yposition Zposition Zrotation Yrotation Xrotation 
	JOINT Left_hip
	{
		OFFSET 0.068973 -0.091024 -0.007589
		CHANNELS 3 Zrotation Yrotation Xrotation
		JOINT Left_knee
		{
			OFFSET 0.036482 -0.391037 -0.003979
			CHANNELS 3 Zrotation Yrotation Xrotation
			JOINT Left_ankle
			{
				OFFSET -0.012239 -0.415469 -0.043440
				CHANNELS 3 Zrotation Yrotation Xrotation
				JOINT Left_foot
				{
					OFFSET 0.023806 -0.058558 0.118702
					CHANNELS 3 Zrotation Yrotation Xrotation
					End Site
					{
						OFFSET 0.000000 0.000000 0.000000
					}
				}
			}
		}
	}
	JOINT Right_hip
	{
		OFFSET -0.066552 -0.090468 -0.003847
		CHANNELS 3 Zrotation Yrotation Xrotation
		JOINT Right_knee
		{
			OFFSET -0.042435 -0.398340 -0.006400
			CHANNELS 3 Zrotation Yrotation Xrotation
			JOINT Right_ankle
			{
				OFFSET 0.014931 -0.415421 -0.041327
				CHANNELS 3 Zrotation Yrotation Xrotation
				JOINT Right_foot
				{
					OFFSET -0.021472 -0.049410 0.121889
					CHANNELS 3 Zrotation Yrotation Xrotation
					End Site
					{
						OFFSET 0.000000 0.000000 0.000000
					}
				}
			}
		}
	}
	JOINT Spine1
	{
		OFFSET -0.002904 0.105700 -0.022855
		CHANNELS 3 Zrotation Yrotation Xrotation
		JOINT Spine2
		{
			OFFSET 0.004179 0.132554 -0.002501
			CHANNELS 3 Zrotation Yrotation Xrotation
			JOINT Spine3
			{
				OFFSET 0.001987 0.049603 0.025988
				CHANNELS 3 Zrotation Yrotation Xrotation
				JOINT Neck
				{
					OFFSET -0.003935 0.211336 -0.045638
					CHANNELS 3 Zrotation Yrotation Xrotation
					JOINT Head
					{
						OFFSET 0.003906 0.065991 0.051018
						CHANNELS 3 Zrotation Yrotation Xrotation
						End Site
						{
							OFFSET 0.000000 0.000000 0.000000
						}
					}
				}
				JOINT Left_collar
				{
					OFFSET 0.072882 0.117751 -0.036270
					CHANNELS 3 Zrotation Yrotation Xrotation
					JOINT Left_shoulder
					{
						OFFSET 0.082118 0.032630 -0.005771
						CHANNELS 3 Zrotation Yrotation Xrotation
						JOINT Left_elbow
						{
							OFFSET 0.263305 -0.015144 -0.028095
							CHANNELS 3 Zrotation Yrotation Xrotation
							JOINT Left_wrist
							{
								OFFSET 0.250741 0.010115 -0.000759
								CHANNELS 3 Zrotation Yrotation Xrotation
								JOINT Left_palm
								{
									OFFSET 0.080683 -0.009989 -0.013613
									CHANNELS 3 Zrotation Yrotation Xrotation
									End Site
									{
										OFFSET 0.000000 0.000000 0.000000
									}
								}
							}
						}
					}
				}
				JOINT Right_collar
				{
					OFFSET -0.074811 0.116132 -0.040385
					CHANNELS 3 Zrotation Yrotation Xrotation
					JOINT Right_shoulder
					{
						OFFSET -0.085089 0.032943 -0.007484
						CHANNELS 3 Zrotation Yrotation Xrotation
						JOINT Right_elbow
						{
							OFFSET -0.254763 -0.014219 -0.020321
							CHANNELS 3 Zrotation Yrotation Xrotation
							JOINT Right_wrist
							{
								OFFSET -0.256597 0.009233 -0.005063
								CHANNELS 3 Zrotation Yrotation Xrotation
								JOINT Right_palm
								{
									OFFSET -0.080528 -0.007219 -0.010379
									CHANNELS 3 Zrotation Yrotation Xrotation
									End Site
									{
										OFFSET 0.000000 0.000000 0.000000
									}
								}
							}
						}
					}
				}
			}
		}
	}
}
MOTION
Frames: 16
Frame Time: 0.100000
0.000000 0.000000 0.000000 174.697486 22.753335 -18.125903 10.625763 10.491027 15.131185 -3.042140 8.853202 -9.035125 -6.479406 10.299411 5.324993 4.166359 7.237425 -3.982384 -5.111496 -9.856665 13.577224 4.498420 -13.609790 -5.699822 3.900584 -8.520239 2.358688 -1.849810 -5.876199 3.255058 2.090894 0.475371 0.578987 0.008125 -1.888731 7.008025 1.311149 -1.715871 1.973906 0.464623 4.258918 3.078682 1.013591 -6.802699 -17.573317 -23.415853 -2.546240 9.392582 -54.562106 -1.560294 7.002363 6.698592 -29.054258 13.002048 -12.064997 -11.967573 6.065794 -8.474147 -1.070167 -21.768309 20.856131 8.245692 8.608111 56.575150 -1.103613 10.329029 -8.991669 26.671332 7.293103 4.084530 6.684613 0.105343 8.800864 2.496124 -7.980489 
-0.001607 0.000120 0.000926 174.745220 22.452051 -18.183673 10.650091 10.556409 15.538671 -3.131616 8.916602 -9.267412 -6.448108 10.328508 5.164981 4.151357 7.269581 -3.897611 -5.184910 -9.807447 13.842862 4.503212 -13.461070 -5.937707 3.943495 -8.399881 2.372099 -1.827923 -5.903469 3.270533 2.151775 0.397273 0.331902 0.046328 -1.945917 7.063273 1.284628 -1.780073 1.962412 0.549948 4.270805 3.313977 0.903492 -6.760246 -17.380894 -23.533669 -2.414690 9.421750 -54.466483 -1.508589 6.956197 6.657548 -29.198151 13.108307 -11.939225 -11.909826 6.115808 -8.490984 -1.064745 -21.884654 20.899802 8.050693 8.535245 56.474066 -1.075297 10.319048 -9.004173 26.945564 7.275034 4.013949 6.645116 0.180436 8.818426 2.490815 -8.051170 
-0.003370 0.000172 0.001909 174.780953 22.135632 -18.147694 10.641190 10.663116 16.015872 -3.219114 8.972600 -9.848206 -6.424559 10.372283 5.169579 4.087641 7.282730 -3.806659 -5.247950 -9.756022 14.013510 4.542355 -13.340364 -6.199245 4.047613 -8.285143 2.452153 -1.843732 -5.914943 3.254234 2.197876 0.337165 0.100964 0.055382 -1.935567 7.071235 1.270386 -1.785161 1.939817 0.571057 4.263904 3.357279 0.876007 -6.755390 -17.421700 -23.622985 -2.394165 9.455160 -54.423230 -1.496878 6.943370 6.657876 -29.155377 13.194862 -11.942197 -11.863502 6.192025 -8.494599 -1.068652 -22.035991 20.958554 7.973734 8.544208 56.519533 -1.106554 10.353768 -8.945716 26.859933 7.355114 4.033006 6.560074 0.228845 8.827272 2.497170 -8.145802 
-0.004500 -0.000189 0.001746 174.792734 22.018957 -18.265353 10.635683 10.638428 15.918306 -3.209375 9.055393 -9.293948 -6.413540 10.396907 5.043795 4.117442 7.299530 -3.910498 -5.338872 -9.707495 14.011041 4.456413 -13.304273 -5.901400 4.164984 -8.297345 2.508541 -2.060490 -5.859517 3.087951 2.164876 0.301890 0.220613 0.054949 -1.983890 7.060163 1.302102 -1.840360 1.998142 0.530031 4.276660 3.120999 0.936762 -6.794770 -17.654366 -23.580578 -2.539864 9.538264 -54.489392 -1.561612 6.859857 6.626010 -29.292529 13.257368 -11.993936 -11.863653 6.128038 -8.494806 -1.052766 -22.053977 20.937338 8.042653 8.578729 56.647600 -1.172806 10.298108 -8.954123 26.874297 7.373149 4.077390 6.532052 0.194752 8.837295 2.485702 -8.164248 
-0.005916 -0.000240 0.001805 174.820962 21.921000 -18.298240 10.581947 10.671975 15.994983 -3.227405 9.092817 -9.211676 -6.375953 10.422789 4.949485 4.086818 7.293536 -3.925443 -5.423026 -9.706099 14.067675 4.410274 -13.278014 -5.892506 4.197888 -8.258918 2.564781 -2.042350 -5.860473 3.048121 2.188693 0.313900 0.138894 0.025885 -1.965862 7.122775 1.250563 -1.818982 1.987236 0.512097 4.268158 3.214163 0.934822 -6.792410 -17.619741 -23.581469 -2.537037 9.537765 -54.404430 -1.603413 6.872057 6.627401 -29.392629 13.292612 -12.025992 -11.930787 6.185010 -8.472614 -1.030127 -22.074780 20.943375 8.016886 8.633515 56.695507 -1.266571 10.322858 -8.866475 26.851312 7.450984 4.106431 6.553073 0.184254 8.814108 2.475259 -8.159872 
-0.007715 -0.000202 0.001776 174.855559 21.827161 -18.251541 10.478957 10.675849 16.196299 -3.296555 9.069537 -9.527925 -6.326164 10.459421 4.945216 4.054457 7.281415 -3.864033 -5.534337 -9.684157 14.093905 4.404918 -13.228454 -5.989490 4.229559 -8.221673 2.657405 -1.954334 -5.852755 3.043997 2.235722 0.313082 -0.043982 0.028745 -1.936506 7.162030 1.202735 -1.799142 1.956523 0.513298 4.270349 3.357778 0.837412 -6.750779 -17.417273 -23.639778 -2.365039 9.473144 -54.396791 -1.634502 6.892441 6.658583 -29.221948 13.249029 -12.025497 -11.955839 6.271134 -8.412983 -1.012108 -22.045925 20.992001 7.858822 8.593296 56.590395 -1.216128 10.322452 -8.883521 26.614430 7.361820 4.096432 6.525475 0.331610 8.784490 2.485562 -8.175364 
-0.008633 -0.000380 0.000611 174.859919 21.940620 -18.314904 10.394072 10.640615 16.012790 -3.299326 9.079192 -9.176475 -6.325622 10.417449 4.908920 4.070444 7.311941 -3.928306 -5.637573 -9.696679 14.043934 4.331739 -13.293537 -5.823831 4.309243 -8.272100 2.762019 -2.090650 -5.837180 2.921309 2.215765 0.332990 0.068342 0.025587 -1.966587 7.188006 1.227335 -1.821494 2.004823 0.505009 4.267034 3.201152 0.943934 -6.792823 -17.680208 -23.566061 -2.509103 9.565321 -54.480017 -1.629631 6.846143 6.564769 -29.272762 13.357722 -12.157669 -12.009169 6.257862 -8.381685 -0.977901 -22.060356 20.890433 8.012002 8.634016 56.629112 -1.211542 10.279232 -8.923666 26.761523 7.376914 4.096755 6.581402 0.335791 8.762086 2.452856 -8.185148 
-0.009249 -0.000113 -0.000798 174.826896 22.108118 -18.379563 10.322023 10.608587 15.982558 -3.318795 9.003874 -9.203188 -6.285100 10.390113 4.853932 4.049400 7.286482 -3.878130 -5.695427 -9.715739 14.045193 4.313085 -13.364671 -5.809114 4.303195 -8.308863 2.797195 -2.065873 -5.829616 2.910360 2.209224 0.372153 0.140363 0.034527 -1.927913 7.207371 1.243378 -1.789771 1.987494 0.515395 4.217310 3.162208 0.960702 -6.816164 -17.578347 -23.594960 -2.493306 9.565547 -54.416255 -1.644192 6.808918 6.614065 -29.255767 13.258632 -12.119478 -12.024656 6.222842 -8.335056 -0.943922 -22.009844 20.953600 8.044407 8.659374 56.592666 -1.164195 10.263786 -8.968188 26.723795 7.288648 4.084713 6.598825 0.341681 8.698018 2.440657 -8.146148 
-0.009727 0.000380 -0.001837 174.782610 22.232818 -18.418591 10.254085 10.600937 16.152984 -3.352602 8.897256 -9.644922 -6.254929 10.350886 4.816435 4.025179 7.277316 -3.759096 -5.725900 -9.750737 14.103639 4.341510 -13.446992 -5.943091 4.303980 -8.327269 2.786706 -1.988422 -5.814732 2.942741 2.188388 0.398572 0.055965 0.051473 -1.881472 7.264488 1.251828 -1.759246 1.968422 0.576101 4.271610 3.282385 0.920057 -6.782140 -17.362050 -23.629747 -2.384073 9.512235 -54.350027 -1.631889 6.760391 6.585716 -29.075583 13.212754 -12.155418 -12.060794 6.306442 -8.252550 -0.889458 -21.991832 21.042611 8.018406 8.677608 56.535163 -1.066995 10.312133 -8.939943 26.692236 7.307156 4.098529 6.640015 0.493280 8.603108 2.405925 -8.111121 
-0.010413 0.000805 -0.002635 174.735804 22.313898 -18.441938 10.226719 10.604897 16.418900 -3.423538 8.780958 -10.219476 -6.241663 10.328467 4.869465 3.987677 7.256995 -3.645460 -5.750525 -9.784545 14.213897 4.400643 -13.489430 -6.202692 4.283412 -8.286095 2.851216 -1.862257 -5.902136 2.967064 2.180946 0.400697 -0.010454 0.027061 -1.821691 7.235328 1.245044 -1.734397 1.963287 0.667547 4.217326 3.279816 0.949542 -6.753208 -17.295418 -23.735483 -2.243895 9.547135 -54.323556 -1.524181 6.756769 6.545939 -28.935880 13.309443 -12.104607 -12.100229 6.264322 -8.167124 -0.815745 -22.018146 21.102926 7.953812 8.665898 56.544003 -0.988994 10.357500 -8.902418 26.574297 7.332018 4.021403 6.630232 0.406901 8.486710 2.362977 -8.090214 
-0.010841 0.000741 -0.003738 174.743589 22.311637 -18.504016 10.194107 10.587464 16.331801 -3.441409 8.806598 -10.027598 -6.240781 10.336518 4.845653 4.010117 7.250510 -3.673324 -5.788622 -9.774468 14.231964 4.373214 -13.470804 -6.224138 4.306826 -8.320657 2.915485 -1.904555 -5.851507 2.921725 2.142561 0.442902 0.005801 -0.009366 -1.796400 7.259545 1.213168 -1.717481 1.992129 0.690164 4.229990 3.219998 0.938458 -6.743598 -17.161140 -23.791648 -2.216044 9.591604 -54.328871 -1.504698 6.740896 6.498018 -28.773061 13.328909 -12.132753 -12.098101 6.266456 -8.131213 -0.800373 -21.992658 21.152356 7.972967 8.675971 56.550810 -0.928624 10.381597 -8.877902 26.552209 7.350786 4.000857 6.624963 0.463892 8.467846 2.363523 -8.082746 
-0.011391 0.000780 -0.004519 174.776678 22.170754 -18.526066 10.134657 10.569519 16.212250 -3.448515 8.886112 -9.769933 -6.198450 10.440361 4.783236 4.114465 7.178272 -3.753916 -5.839375 -9.753887 14.127103 4.341109 -13.405566 -6.115757 4.286388 -8.339970 3.004217 -1.810947 -5.781095 2.901524 2.159793 0.472044 -0.013976 -0.079115 -1.717414 7.215256 1.106102 -1.666775 2.033185 0.887103 4.262313 3.519618 0.778459 -6.477223 -16.072607 -23.874165 -2.015702 9.536163 -54.223633 -1.627226 6.870992 6.440131 -28.645344 13.442760 -11.968741 -12.171774 6.225050 -8.060119 -0.757989 -21.870794 21.169156 7.836386 8.673267 56.499131 -0.704843 10.573193 -8.732692 26.481626 7.412484 3.913809 6.633652 0.397485 8.351233 2.368090 -8.016950 
-0.011316 0.000773 -0.005045 174.732978 22.121056 -18.484725 10.140256 10.508667 16.079028 -3.478376 8.940546 -9.760170 -6.166866 10.530213 4.801958 4.248276 7.092291 -3.806143 -5.786131 -9.704790 13.988466 4.377402 -13.377938 -6.102646 4.119254 -8.350171 3.071932 -1.477481 -5.824093 3.035051 2.080859 0.462592 -0.153041 -0.091668 -1.661035 7.071098 1.041426 -1.677630 2.079600 1.319588 4.048236 4.243832 0.703974 -6.305590 -14.400959 -23.903017 -1.606694 9.442272 -54.140084 -1.880682 7.107648 6.444966 -28.612434 13.549392 -11.655075 -12.353023 6.100619 -7.932438 -0.628525 -21.648861 21.177802 7.482994 8.588305 56.407020 -0.397509 10.828705 -8.658073 26.339883 7.407039 3.701131 6.692342 0.159895 8.094728 2.313082 -7.836384 
-0.010563 0.000763 -0.006182 174.700406 22.165467 -18.587470 10.173069 10.453193 15.938555 -3.478631 8.984997 -9.504493 -6.143587 10.488826 4.786557 4.291462 7.170365 -3.808214 -5.760526 -9.679760 13.931141 4.368236 -13.417867 -5.955211 4.062343 -8.381707 3.087380 -1.440832 -5.815528 3.009817 1.942132 0.448397 -0.025780 -0.123417 -1.687785 7.187820 1.019379 -1.750696 2.185043 1.579674 4.034615 4.459429 0.813803 -6.336933 -14.006144 -23.935997 -1.623125 9.495568 -53.975799 -2.059629 7.040355 6.449265 -28.842161 13.517648 -11.604353 -12.411079 6.032502 -7.855019 -0.527727 -21.577069 21.202086 7.458133 8.543672 56.391349 -0.229461 10.862372 -8.756172 26.654699 7.363942 3.635134 6.716655 0.108650 7.975460 2.250607 -7.758864 
-0.009574 0.000835 -0.007628 174.674564 22.165810 -18.634869 10.193302 10.435017 15.764675 -3.451518 9.017835 -9.292178 -6.119706 10.454453 4.791244 4.247763 7.242424 -3.790727 -5.729088 -9.693928 13.801538 4.358254 -13.444905 -5.807297 4.064628 -8.385419 3.091824 -1.498904 -5.775317 2.951551 1.840095 0.467969 0.151168 -0.147861 -1.726165 7.398571 1.020682 -1.784135 2.208442 1.561200 4.016725 4.287843 0.958405 -6.527648 -14.376218 -23.944581 -1.847288 9.573739 -53.924871 -2.128810 6.918564 6.486144 -28.762541 13.335921 -11.731129 -12.402149 6.083310 -7.817049 -0.507280 -21.574616 21.225758 7.669553 8.634861 56.407689 -0.264536 10.806489 -8.811492 26.738947 7.363908 3.675750 6.745983 0.206518 7.982556 2.229995 -7.748471 
-0.008607 0.001107 -0.008903 174.655985 22.101243 -18.608262 10.211268 10.471275 15.623449 -3.434700 9.044320 -9.279248 -6.086475 10.481753 4.809333 4.192311 7.228547 -3.773116 -5.655852 -9.714133 13.638887 4.367909 -13.417548 -5.798605 4.042444 -8.371167 3.100754 -1.468232 -5.772822 2.970171 1.782113 0.496111 0.252762 -0.161531 -1.722808 7.486292 1.021480 -1.768394 2.178440 1.498085 4.023514 4.184495 1.020696 -6.547440 -14.593787 -23.950766 -1.887526 9.581772 -53.859295 -2.061876 6.951805 6.486074 -28.737908 13.273013 -11.745845 -12.411678 6.121061 -7.836368 -0.545066 -21.568454 21.268138 7.683427 8.704993 56.413685 -0.434864 10.768955 -8.798964 26.645554 7.352635 3.692741 6.749876 0.187674 8.037996 2.257111 -7.747387 
